<?xml version="1.0" standalone="no"?>
<!DOCTYPE svg PUBLIC "-//W3C//DTD SVG 20010904//EN"
 "http://www.w3.org/TR/2001/REC-SVG-20010904/DTD/svg10.dtd">
<svg version="1.0" xmlns="http://www.w3.org/2000/svg"
 width="1080.000000pt" height="1080.000000pt" viewBox="0 0 1080.000000 1080.000000"
 preserveAspectRatio="xMidYMid meet">
<metadata>
Created by potrace 1.14, written by Peter Selinger 2001-2017
</metadata>
<g transform="translate(0.000000,1080.000000) scale(0.100000,-0.100000)"
fill="#000000" stroke="none">
<path d="M2209 10796 c-2 -2 -33 -6 -69 -10 -36 -3 -76 -8 -90 -11 -13 -2 -42
-7 -65 -11 -234 -34 -578 -163 -810 -302 -518 -312 -901 -804 -1076 -1382 -33
-109 -76 -319 -87 -424 -9 -92 -9 -6431 0 -6516 4 -36 12 -92 18 -125 7 -33
13 -69 15 -81 8 -54 51 -210 87 -314 172 -500 513 -935 968 -1235 236 -156
633 -312 885 -349 23 -4 51 -8 64 -11 13 -2 49 -8 80 -12 71 -10 6431 -11
6526 -1 313 33 655 145 933 305 86 49 283 184 312 213 3 3 39 34 80 70 316
275 552 626 688 1022 53 152 91 307 107 438 2 14 8 57 14 95 10 77 10 6485 0
6520 -4 11 -10 45 -14 75 -37 279 -161 622 -321 886 -192 317 -488 617 -789
801 -172 105 -345 186 -530 248 -61 20 -265 71 -317 79 -21 3 -55 9 -75 12
-21 3 -49 8 -63 12 -26 7 -6463 15 -6471 8z"/>
</g>
</svg>
